#!OML:ASF X:\für Bonn\!DataBase\2005_08_10_Bjorn_Final\c3d\bjorn.ASF
:FULLY-SPECIFIED
:DEGREES
124
root 0.838481 11.7351 4.05991 -176.62 1.5307 -180.56
lowerback 32.4751 -4.14763 5.2454
upperback 15.3288 1.35647 -2.11808
thorax 0.0718189 3.13807 -5.37153
lowerneck -18.5371 -0.27355 2.94034
upperneck 0.872499 -1.32345 -1.81757
head 3.5671 -0.906496 -1.27627
rclavicle 5.56597e-015 7.95139e-016
rhumerus 78.4228 -2.92988 -58.5263
rradius 19.1585
rwrist 28.0563
rhand -13.0015 10.6986
rfingers 7.12502
rthumb 13.0918 -18.8705
lclavicle 5.56597e-015 7.95139e-016
lhumerus 81.612 -4.18765 59.1914
lradius 12.0814
lwrist -35.7899
lhand -32.4125 -8.35677
lfingers 7.12502
lthumb -5.64699 21.548
rfemur -76.2118 -23.5973 15.2927
rtibia 125.88
rfoot -33.4956 25.1111
rtoes -29.0609
lfemur -76.7928 6.14266 -22.4981
ltibia 129.361
lfoot -26.3649 -5.08668
ltoes -32.2628
125
root 0.837858 11.953 4.0628 -176.098 1.4772 -180.574
lowerback 32.016 -4.0936 5.3162
upperback 15.2866 1.33979 -2.07089
thorax 0.194732 3.10148 -5.34788
lowerneck -18.7202 -0.283407 2.79815
upperneck 1.45016 -1.30403 -1.76411
head 3.35008 -0.894951 -1.10722
rclavicle 3.97569e-015 -1.19271e-014
rhumerus 78.5411 -3.03425 -58.52
rradius 19.1685
rwrist 27.7689
rhand -12.9801 10.8298
rfingers 7.12502
rthumb 13.1123 -18.738
lclavicle 3.97569e-015 -1.19271e-014
lhumerus 81.7441 -4.08947 59.5797
lradius 12.0663
lwrist -36.4294
lhand -32.4091 -8.42104
lfingers 7.12502
lthumb -5.64376 21.4838
rfemur -75.4779 -22.1253 15.4689
rtibia 124.067
rfoot -33.297 24.16
rtoes -28.9689
lfemur -76.262 5.4078 -22.4623
ltibia 127.661
lfoot -25.8948 -4.86293
ltoes -31.7319
126
root 0.836881 12.1716 4.0608 -175.594 1.43257 -180.606
lowerback 31.4617 -4.03122 5.38237
upperback 15.2596 1.32194 -2.03831
thorax 0.37202 3.06585 -5.33459
lowerneck -18.4367 -0.291115 2.74555
upperneck 1.07833 -1.29298 -1.57814
head 3.62316 -0.869285 -1.15734
rclavicle 2.38542e-014 -6.75868e-015
rhumerus 78.6378 -3.11773 -58.4583
rradius 19.1953
rwrist 27.3148
rhand -13.049 10.9637
rfingers 7.12502
rthumb 13.046 -18.6083
lclavicle 2.38542e-014 -6.75868e-015
lhumerus 81.9293 -4.01261 59.585
lradius 12.015
lwrist -36.6766
lhand -32.3009 -8.46756
lfingers 7.12502
lthumb -5.53927 21.44
rfemur -74.7156 -20.8291 15.5981
rtibia 122.241
rfoot -33.1654 23.2433
rtoes -28.9535
lfemur -75.6573 4.79337 -22.4696
ltibia 125.934
lfoot -25.4833 -4.57407
ltoes -31.2487
127
root 0.836151 12.3912 4.0546 -175.099 1.35873 -180.622
lowerback 30.4946 -3.95504 5.43749
upperback 15.3982 1.27104 -1.77888
thorax 0.830047 3.02916 -5.42294
lowerneck -18.6362 -0.30256 2.52389
upperneck 1.64574 -1.26433 -1.47447
head 3.40198 -0.85173 -0.970593
rclavicle 2.90226e-014 1.39149e-014
rhumerus 78.7725 -3.17716 -58.2347
rradius 19.2259
rwrist 26.707
rhand -13.2053 11.1031
rfingers 7.12502
rthumb 12.8953 -18.4785
lclavicle 2.90226e-014 1.39149e-014
lhumerus 82.1094 -3.88907 59.8467
lradius 11.9931
lwrist -37.016
lhand -32.0291 -8.55927
lfingers 7.12502
lthumb -5.27687 21.355
rfemur -73.8924 -19.693 15.7335
rtibia 120.382
rfoot -33.0782 22.3781
rtoes -28.9558
lfemur -75.0344 4.2433 -22.4878
ltibia 124.189
lfoot -25.1049 -4.15432
ltoes -31.1826
128
root 0.83643 12.6103 4.0456 -174.632 1.29702 -180.652
lowerback 29.8672 -3.8837 5.49059
upperback 15.378 1.26094 -1.7259
thorax 1.07918 3.00055 -5.36551
lowerneck -18.6214 -0.315603 2.39778
upperneck 1.76629 -1.25098 -1.34971
head 3.43869 -0.834267 -0.911062
rclavicle -2.38542e-014 3.97569e-016
rhumerus 78.8451 -3.24484 -57.8717
rradius 19.2941
rwrist 26.042
rhand -13.428 11.1701
rfingers 7.12502
rthumb 12.6806 -18.4249
lclavicle -2.38542e-014 3.97569e-016
lhumerus 82.2249 -3.83368 60.2317
lradius 12.014
lwrist -37.4798
lhand -31.7647 -8.71004
lfingers 7.12502
lthumb -5.02156 21.2105
rfemur -73.0265 -18.6711 15.8376
rtibia 118.5
rfoot -33.0001 21.5873
rtoes -29.0826
lfemur -74.3616 3.78849 -22.5294
ltibia 122.431
lfoot -24.7394 -3.70755
ltoes -31.2247
129
root 0.836503 12.8282 4.03532 -174.166 1.2339 -180.684
lowerback 29.2071 -3.81674 5.56626
upperback 15.3516 1.24325 -1.6997
thorax 1.33879 2.96986 -5.3486
lowerneck -18.6873 -0.332125 2.318
upperneck 1.936 -1.25441 -1.23367
head 3.50206 -0.825147 -0.863709
rclavicle -1.47101e-014 2.62396e-014
rhumerus 78.9154 -3.32229 -57.6129
rradius 19.329
rwrist 25.6314
rhand -13.6847 11.2158
rfingers 7.12502
rthumb 12.4331 -18.3944
lclavicle -1.47101e-014 2.62396e-014
lhumerus 82.3151 -3.80747 60.5956
lradius 12.0625
lwrist -37.9023
lhand -31.5401 -8.79212
lfingers 7.12502
lthumb -4.8047 21.1334
rfemur -72.1725 -17.7464 15.9339
rtibia 116.607
rfoot -32.9006 20.8031
rtoes -29.1377
lfemur -73.6699 3.39771 -22.565
ltibia 120.634
lfoot -24.3302 -3.40124
ltoes -30.9042
130
root 0.836257 13.0433 4.02244 -173.725 1.16156 -180.713
lowerback 28.5293 -3.74846 5.62576
upperback 15.3393 1.22717 -1.64506
thorax 1.62425 2.94073 -5.29024
lowerneck -18.8952 -0.346709 2.19678
upperneck 2.20103 -1.24824 -1.13193
head 3.6166 -0.812269 -0.814779
rclavicle -1.11319e-014 1.82882e-014
rhumerus 79.0206 -3.40366 -57.3864
rradius 19.357
rwrist 25.5036
rhand -13.9632 11.2384
rfingers 7.12502
rthumb 12.1646 -18.3879
lclavicle -1.11319e-014 1.82882e-014
lhumerus 82.4285 -3.76501 60.9092
lradius 12.0815
lwrist -38.1913
lhand -31.4281 -8.92363
lfingers 7.12502
lthumb -4.69651 21.0043
rfemur -71.2797 -16.9401 16.0212
rtibia 114.7
rfoot -32.862 20.0276
rtoes -29.3406
lfemur -72.9372 3.04006 -22.5812
ltibia 118.816
lfoot -23.9381 -3.24159
ltoes -30.4076
131
root 0.837097 13.2609 4.00775 -173.315 1.07975 -180.744
lowerback 27.9271 -3.6651 5.68937
upperback 15.2424 1.20804 -1.57637
thorax 1.7799 2.89263 -5.22672
lowerneck -18.933 -0.383701 2.07537
upperneck 2.44317 -1.25658 -1.09623
head 3.69818 -0.807679 -0.786153
rclavicle 2.46493e-014 -5.56597e-015
rhumerus 79.0136 -3.41399 -57.1885
rradius 19.3659
rwrist 25.6402
rhand -14.2228 11.1974
rfingers 7.12502
rthumb 11.9143 -18.4436
lclavicle 2.46493e-014 -5.56597e-015
lhumerus 82.4544 -3.79421 61.0183
lradius 12.0631
lwrist -38.2994
lhand -31.4205 -8.99751
lfingers 7.12502
lthumb -4.68918 20.9306
rfemur -70.3391 -16.1986 16.1004
rtibia 112.763
rfoot -32.7704 19.2914
rtoes -29.5595
lfemur -72.1413 2.74527 -22.5759
ltibia 116.948
lfoot -23.5137 -3.24255
ltoes -29.4777
132
root 0.838433 13.4821 3.9912 -172.931 1.00729 -180.773
lowerback 27.4232 -3.5699 5.76604
upperback 15.0735 1.19395 -1.5231
thorax 1.81227 2.83576 -5.19774
lowerneck -18.9087 -0.413178 2.03779
upperneck 2.70988 -1.26651 -1.08392
head 3.77754 -0.802222 -0.777885
rclavicle -1.94809e-014 1.78906e-014
rhumerus 78.8921 -3.3933 -57.0856
rradius 19.4046
rwrist 25.9648
rhand -14.4031 11.182
rfingers 7.12502
rthumb 11.7404 -18.4689
lclavicle -1.94809e-014 1.78906e-014
lhumerus 82.4212 -3.90012 61.0731
lradius 12.0184
lwrist -38.2652
lhand -31.5008 -9.10433
lfingers 7.12502
lthumb -4.76675 20.8221
rfemur -69.3442 -15.5126 16.1821
rtibia 110.775
rfoot -32.722 18.5183
rtoes -29.8938
lfemur -71.2759 2.48772 -22.5671
ltibia 115.032
lfoot -23.1035 -3.22441
ltoes -28.7459
133
root 0.840377 13.7051 3.97251 -172.577 0.934506 -180.8
lowerback 26.9296 -3.47631 5.84123
upperback 14.9073 1.18209 -1.47119
thorax 1.84556 2.7819 -5.17049
lowerneck -18.926 -0.446659 2.01295
upperneck 2.98174 -1.28489 -1.10659
head 3.86442 -0.803903 -0.783614
rclavicle 1.63003e-014 1.66979e-014
rhumerus 78.8473 -3.38234 -57.4474
rradius 19.3433
rwrist 26.8296
rhand -14.5101 11.2338
rfingers 7.12502
rthumb 11.6372 -18.423
lclavicle 1.63003e-014 1.66979e-014
lhumerus 82.3868 -3.99606 61.1947
lradius 11.9781
lwrist -38.3443
lhand -31.6459 -9.13405
lfingers 7.12502
lthumb -4.90685 20.7891
rfemur -68.2986 -14.8824 16.2483
rtibia 108.754
rfoot -32.6049 17.799
rtoes -30.1826
lfemur -70.3475 2.28301 -22.5486
ltibia 113.087
lfoot -22.7068 -3.22738
ltoes -27.9771
134
root 0.842356 13.931 3.95271 -172.251 0.83333 -180.829
lowerback 26.4535 -3.39443 5.90605
upperback 14.7465 1.16007 -1.40252
thorax 1.877 2.72402 -5.11702
lowerneck -18.973 -0.479336 1.97331
upperneck 3.24111 -1.30042 -1.14873
head 3.95199 -0.807011 -0.79306
rclavicle 1.15295e-014 -1.98785e-014
rhumerus 78.845 -3.37569 -57.9004
rradius 19.2573
rwrist 27.8199
rhand -14.5411 11.2569
rfingers 7.12502
rthumb 11.6073 -18.4016
lclavicle 1.15295e-014 -1.98785e-014
lhumerus 82.3678 -4.07716 61.2126
lradius 11.9273
lwrist -38.2795
lhand -31.838 -9.1619
lfingers 7.12502
lthumb -5.09236 20.7569
rfemur -67.1985 -14.3174 16.3081
rtibia 106.682
rfoot -32.4438 17.1469
rtoes -30.3085
lfemur -69.3461 2.07601 -22.5204
ltibia 111.086
lfoot -22.2996 -3.27613
ltoes -27.1544
135
root 0.845101 14.156 3.92982 -171.952 0.762665 -180.853
lowerback 25.9903 -3.29895 5.97483
upperback 14.568 1.15255 -1.35112
thorax 1.88715 2.67182 -5.09004
lowerneck -18.9792 -0.512635 1.9799
upperneck 3.47801 -1.32532 -1.20548
head 4.02598 -0.815111 -0.814889
rclavicle 2.3059e-014 -2.78299e-015
rhumerus 78.8194 -3.35532 -58.4302
rradius 19.1654
rwrist 28.7257
rhand -14.4368 11.3099
rfingers 7.12502
rthumb 11.7079 -18.3429
lclavicle 2.3059e-014 -2.78299e-015
lhumerus 82.3352 -4.18344 61.1937
lradius 11.8853
lwrist -38.1797
lhand -31.9799 -9.12151
lfingers 7.12502
lthumb -5.22931 20.794
rfemur -66.0528 -13.7728 16.3604
rtibia 104.583
rfoot -32.2947 16.4992
rtoes -30.5288
lfemur -68.2923 1.93568 -22.4936
ltibia 109.057
lfoot -21.9356 -3.31899
ltoes -26.4446
136
root 0.847557 14.381 3.90597 -171.711 0.676496 -180.86
lowerback 25.5422 -3.22092 6.0609
upperback 14.4234 1.14484 -1.29005
thorax 1.93086 2.62931 -5.06118
lowerneck -19.079 -0.548046 1.96694
upperneck 3.75799 -1.3493 -1.2885
head 4.1276 -0.825562 -0.842745
rclavicle 6.36111e-015 -3.97569e-015
rhumerus 78.8059 -3.35365 -58.7752
rradius 19.0959
rwrist 29.3214
rhand -14.2516 11.371
rfingers 7.12502
rthumb 11.8865 -18.2716
lclavicle 6.36111e-015 -3.97569e-015
lhumerus 82.3425 -4.27412 61.2796
lradius 11.8077
lwrist -38.239
lhand -32.0943 -9.05368
lfingers 7.12502
lthumb -5.33974 20.859
rfemur -64.8178 -13.2479 16.3994
rtibia 102.441
rfoot -32.0514 16.0029
rtoes -30.3193
lfemur -67.1666 1.81964 -22.4484
ltibia 107.006
lfoot -21.6005 -3.27034
ltoes -26.173
137
root 0.850748 14.604 3.87969 -171.519 0.584425 -180.884
lowerback 25.1027 -3.14286 6.10462
upperback 14.2866 1.13349 -1.22307
thorax 1.97929 2.58451 -5.00098
lowerneck -19.1399 -0.57803 1.96991
upperneck 3.98602 -1.36976 -1.38495
head 4.20709 -0.83612 -0.876635
rclavicle 3.57812e-015 -5.56597e-015
rhumerus 78.8031 -3.3039 -58.9469
rradius 18.9957
rwrist 29.5959
rhand -14.0147 11.378
rfingers 7.12502
rthumb 12.115 -18.2512
lclavicle 3.57812e-015 -5.56597e-015
lhumerus 82.3473 -4.35433 61.1646
lradius 11.7246
lwrist -38.1109
lhand -32.1831 -8.92346
lfingers 7.12502
lthumb -5.4255 20.9871
rfemur -63.5212 -12.7901 16.4142
rtibia 100.267
rfoot -31.8429 15.5082
rtoes -30.2923
lfemur -65.9679 1.70894 -22.4203
ltibia 104.924
lfoot -21.2922 -3.18951
ltoes -26.291
138
root 0.853382 14.8257 3.85165 -171.373 0.495753 -180.868
lowerback 24.6598 -3.07783 6.19534
upperback 14.1668 1.12267 -1.16347
thorax 2.05187 2.54812 -4.97512
lowerneck -19.2358 -0.604906 2.00213
upperneck 4.22916 -1.3927 -1.4956
head 4.29639 -0.848787 -0.92033
rclavicle 1.27222e-014 -5.56597e-015
rhumerus 78.7905 -3.24648 -59.0795
rradius 18.8919
rwrist 29.6217
rhand -13.7178 11.432
rfingers 7.12502
rthumb 12.4012 -18.1801
lclavicle 1.27222e-014 -5.56597e-015
lhumerus 82.3669 -4.4176 61.1851
lradius 11.5975
lwrist -38.1662
lhand -32.1967 -8.87427
lfingers 7.12502
lthumb -5.43865 21.0359
rfemur -62.145 -12.3441 16.4583
rtibia 98.0432
rfoot -31.6261 15.0317
rtoes -30.2204
lfemur -64.7087 1.63994 -22.3482
ltibia 102.808
lfoot -20.9801 -3.11631
ltoes -26.526
